# xmcd CD database file
#
# Track frame offsets:
#	182
#	33465
#	72425
#	113720
#	141740
#	171130
#	207060
#	248807
#
# Disc length: 3817 seconds
#
# Revision: 0
# Processed by: cddbd v1.5PL3 Copyright (c) Steve Scherf et al.
# Submitted via: CDex 1.51
#
DISCID=750ee708
DTITLE=Andy LaVerne - Severe Clear
DYEAR=1990
DGENRE=Jazz
TTITLE0=Severe Clear
TTITLE1=No Guts, No Glory
TTITLE2=Plasma Pool
TTITLE3=Fact or Fiction
TTITLE4=Rick's Trick
TTITLE5=Trajectory
TTITLE6=Three Times Twice
TTITLE7=Ethereal Spheres
EXTD=YEAR: 1990
EXTT0=
EXTT1=
EXTT2=
EXTT3=
EXTT4=
EXTT5=
EXTT6=
EXTT7=
PLAYORDER=
